<?xml version="1.0" encoding="UTF-8"?>
<svg id="_レイヤー_2" data-name="レイヤー 2" xmlns="http://www.w3.org/2000/svg" viewBox="0 0 224.34 145.77">
  <defs>
    <style>
      .cls-1 {
        fill: #a4a8b2;
      }

      .cls-1, .cls-2 {
        stroke-width: 0px;
      }

      .cls-2 {
        fill: #1b2a44;
      }
    </style>
  </defs>
  <g id="TOP">
    <g>
      <g>
        <path class="cls-1" d="m99.13,59.09c4.05,0,10.09.27,14.59,3.33,3.51,2.34,6.58,6.94,6.58,13.33,0,9.19-6.03,15.94-15.13,16.57l19.1,26.84h-8.11l-18.29-26.3h-1.71v26.3h-6.67v-60.08h9.64Zm-2.97,27.83h4.23c8.29,0,13.24-3.96,13.24-10.99,0-3.33-.99-6.67-4.77-8.83-2.7-1.53-5.76-1.71-8.65-1.71h-4.05v21.53Z"/>
        <path class="cls-1" d="m167.86,102.23h-25.58l-7.21,16.93h-7.39l27.65-62.96,26.93,62.96h-7.39l-7.03-16.93Zm-2.61-6.31l-10.09-24.05-10.27,24.05h20.36Z"/>
        <path class="cls-1" d="m197.77,93.31l-19.73-34.23h7.75l15.31,26.84,15.49-26.84h7.75l-19.91,34.23v25.85h-6.67v-25.85Z"/>
      </g>
      <g>
        <path class="cls-2" d="m98.92,136.57c-.41.77-1.76,1.64-3.15,1.38-.65,1.74-2.09,3.27-3.81,3.27-1.24,0-3.36-.9-2.07-4.71.75-2.28,1.58-4.51,2.37-6.8h1.92c-.65,1.64-1.35,3.44-1.94,5.07.49-.61,1.31-1.06,2.07-1.06,1.13,0,1.83.88,1.83,2.27,0,.18-.02.34-.04.52.76.16,1.51-.11,1.96-.86l.85.92Zm-4.69-.36c0-.58-.32-.88-.74-.88-.66,0-1.46.72-1.92,2.01-.49,1.47-.13,2.16.52,2.16,1.02,0,2.14-1.87,2.14-3.29Z"/>
        <path class="cls-2" d="m95.14,144.03c0-2.14,2.95-2.93,5.23-3.24l.54-1.55c-.36.52-1.06.92-1.76.92-2.52,0-1.94-2.89-.56-6.28h1.89c-.88,2.16-1.85,4.73-.65,4.73,1.35,0,2.07-2.73,2.71-4.73h1.87c-.95,2.75-1.73,5.11-2.68,7.88-.88,2.55-2.43,4.01-4.35,4.01-1.49,0-2.25-.81-2.25-1.74Zm4.8-1.89c-1.33.13-3.04.79-3.04,1.64,0,.31.2.54.65.54.83,0,1.71-.63,2.39-2.18Z"/>
        <path class="cls-2" d="m118.5,135.31l-.61,1.74h-.97c-.93,3.17-3.09,5.75-5.66,5.75-2.41,0-3.87-1.51-3.87-4.71,0-4.15,2.88-9.67,7.09-9.67,2.5,0,3.96,2.01,3.18,4.77h-2.05c.52-1.76-.38-2.79-1.44-2.79-2.66,0-4.71,4.24-4.71,7.62,0,1.83.67,2.91,1.98,2.91,1.53,0,2.82-1.96,3.49-3.88h-2.21l.59-1.74h5.2Z"/>
        <path class="cls-2" d="m127.17,137.07c-.65,1.51-2.36,4.12-4.06,4.12-1.1,0-1.69-.79-1.69-1.71,0-1.12.57-2.27,1.26-3.76-.4-.02-.92-.07-1.37-.22-.79,2.27-1.98,4.42-2.91,5.66l-1.22-.92c1.37-1.78,2.7-4.78,3.09-7h1.67l-.16.72c.83.22,2.55.31,3.31.29-.7,1.49-1.78,3.9-1.78,4.73,0,.29.14.47.39.47.68,0,1.89-1.53,2.7-3.26l.77.86Z"/>
        <path class="cls-2" d="m134.79,136.57c-.4.76-1.73,1.62-3.09,1.4-.52,1.76-1.89,3.22-3.78,3.22-1.53,0-2.46-1.12-2.46-2.63,0-2.5,1.67-4.85,4.06-4.85,1.58,0,2.41,1.31,2.41,2.64v.14c.77.2,1.55-.07,2.01-.85l.85.92Zm-4.73-.07c0-.7-.29-1.2-.84-1.2-.97,0-1.91,1.71-1.91,3.02,0,.81.34,1.22.86,1.22.93,0,1.89-1.67,1.89-3.04Z"/>
        <path class="cls-2" d="m145.96,136.57c-.43.79-1.83,1.67-3.25,1.37-.86,1.89-2.32,3.27-3.9,3.27-1.06,0-1.62-.63-1.78-1.35-.54.81-1.28,1.35-2.27,1.35-1.33,0-1.93-.97-1.93-2.21,0-1.35.77-3.58,1.57-5.11h1.94c-.77,1.6-1.64,3.61-1.64,4.8,0,.43.14.7.5.7,1.28,0,2.19-3.35,2.89-5.5h1.83c-.54,1.64-1.37,3.88-1.37,4.85,0,.36.12.67.56.67.99,0,2.57-2.61,2.48-5.52h1.93c.04.9-.07,1.8-.31,2.64.72.13,1.44-.14,1.89-.88l.84.92Z"/>
        <path class="cls-2" d="m153.53,137.07c-.68,1.53-2.36,4.1-4.08,4.12h-.02c-.85,0-1.33-.59-1.44-1.2-.39.63-1.04,1.2-2.03,1.2-1.26,0-2.05-1.03-2.05-2.63,0-2.39,1.67-4.85,3.69-4.85.74,0,1.44.45,1.71.94.58-1.64,1.12-3.27,1.66-4.93h1.87c-2.88,7.88-3.6,9.75-2.82,9.75.7,0,1.84-1.37,2.73-3.26l.79.86Zm-4.69-1.13c-.23-.34-.61-.59-1.08-.59-1.19,0-1.98,1.67-1.98,3.06,0,.58.25,1.06.83,1.06.79,0,1.53-1.15,2.23-3.52Z"/>
        <path class="cls-2" d="m160.3,137.07c-1.04,2.07-2.16,4.12-5.3,4.12-1.78,0-3.16-1.01-3.16-2.88,0-2.36,1.58-4.6,3.92-4.6,1.42,0,2.18,1.04,2.18,2.12,0,2.14-2.41,3.09-4.23,2.68.12.72.65,1.15,1.69,1.15,1.74,0,2.8-.92,4.08-3.47l.83.88Zm-6.56.31c1.15.13,2.48-.49,2.5-1.47.02-.41-.22-.7-.61-.7-.9,0-1.65.97-1.89,2.18Z"/>
        <path class="cls-2" d="m166.25,138.73c-.57.99-2,2.46-3.47,2.46-1.1,0-1.67-.79-1.67-1.71,0-1.12.56-2.27,1.24-3.76-.36-.02-.81-.07-1.21-.18-.74,1.76-1.64,3.11-2.57,4.23-.88,1.04-1.55-.04-.77-.94,1.28-1.49,2-3.65,2.48-5.57h1.64c-.07.27-.14.52-.23.77.88.18,2.39.25,3.07.23-.7,1.49-1.78,3.9-1.78,4.73,0,.29.14.47.38.47.43,0,1.28-.85,1.87-1.74l1.02,1.01Z"/>
      </g>
      <ellipse class="cls-2" cx="42.93" cy="89.64" rx="5.95" ry="4.3" transform="translate(-48.96 127.5) rotate(-86.8)"/>
      <ellipse class="cls-2" cx="16.82" cy="87.07" rx="5.95" ry="4.3" transform="translate(-71.06 99.01) rotate(-86.8)"/>
      <ellipse class="cls-2" cx="27.94" cy="97.4" rx="3.52" ry="4.96" transform="translate(-70.87 119.86) rotate(-86.8)"/>
      <circle class="cls-2" cx="15.55" cy="103.32" r="1.88"/>
      <circle class="cls-2" cx="41.4" cy="102.32" r="1.88"/>
      <circle class="cls-2" cx="10.78" cy="106.34" r="1.88"/>
      <circle class="cls-2" cx="47.3" cy="105.46" r="1.88"/>
      <circle class="cls-2" cx="16.04" cy="109.36" r="1.88"/>
      <circle class="cls-2" cx="40.45" cy="108.3" r="1.88"/>
      <path class="cls-2" d="m26.96,143.73c-1.12,0-2.03-.91-2.03-2.03,0-8.22-4.96-12.34-10.71-17.11C7.7,119.18.32,113.04,0,99.94c-.19-8.17,4.36-19.17,8.35-27.84,5.86-12.72,8.72-25.91,11.24-37.54,1.41-6.5,2.74-12.65,4.45-18.04C27.91,4.32,36.73-1.31,43.01.26c2.16.55,9.01,3.43,6.33,17.65-1.11,5.88-7.32,19.92-11.89,29.98-6.51,14.31-6.06,20.23-4.92,21.38.45.45,1.59.33,3.05-.32,3.11-1.38,8.85-15.6,13.46-27.02,5.71-14.15,11.62-28.77,17.3-34.45,5.41-5.41,13.15-6.07,18.39-1.58,5.06,4.33,7.68,13.87-1.56,26.56-2.82,3.86-5.55,7.49-8.11,10.89-10.78,14.32-18.56,24.66-17.32,31.83.59,3.39,2.61,7.89,4.76,12.66,1.53,3.4,3.11,6.91,4.47,10.61,2.71,7.34,7.86,25.86-2.76,39.36-.7.88-1.98,1.03-2.85.34-.88-.69-1.03-1.97-.34-2.85,9.35-11.89,4.61-28.75,2.14-35.45-1.31-3.56-2.87-7.01-4.36-10.34-2.35-5.23-4.38-9.74-5.06-13.63-1.55-8.9,6.68-19.83,18.07-34.97,2.55-3.39,5.27-6.99,8.07-10.84,7.61-10.44,5.94-17.88,2.2-21.08-3.09-2.64-8.51-3.01-12.88,1.37-5.09,5.09-11.1,19.97-16.4,33.1-6.8,16.83-11.19,27.25-15.58,29.2-4.06,1.8-6.36.7-7.58-.53-4.35-4.39-.2-16.45,4.05-25.8,2.64-5.8,10.5-23.09,11.65-29.17,1.35-7.13.07-12.1-3.33-12.95-3.79-.96-10.83,3.21-14.1,13.54-1.65,5.21-2.97,11.26-4.36,17.67-2.57,11.84-5.48,25.25-11.52,38.38-3.81,8.27-8.15,18.71-7.98,26.05.27,11.26,6.33,16.29,12.75,21.62,5.99,4.97,12.18,10.11,12.18,20.24,0,1.12-.91,2.03-2.03,2.03Z"/>
    </g>
  </g>
</svg>